<?xml version="1.0" encoding="UTF-8"?>
<svg xmlns:xlink="http://www.w3.org/1999/xlink" width="309px" height="167px" viewBox="0 0 309 167" version="1.1"
     xmlns="http://www.w3.org/2000/svg">
    <!-- Generator: sketchtool 61 (101010) - https://sketch.com -->
    <title>5A8DFD10-97B4-4B71-B599-592AF817FBA9@3x</title>
    <desc>Created with sketchtool.</desc>
    <defs>
        <linearGradient x1="50%" y1="80.1869877%" x2="50%" y2="100%" id="linearGradient-1">
            <stop stop-color="#ECECF1" offset="0%"></stop>
            <stop stop-color="#ECECF1" stop-opacity="0" offset="100%"></stop>
        </linearGradient>
        <polygon id="path-2" points="0 0.0003 299.950342 0.0003 299.950342 75.950235 0 75.950235"></polygon>
        <polygon id="path-4"
                 points="0.0173795094 -5.77200577e-05 22.5335642 -5.77200577e-05 22.5335642 9.75468975 0.0173795094 9.75468975"></polygon>
        <polygon id="path-6"
                 points="0.0518961039 -5.77200577e-05 18.32 -5.77200577e-05 18.32 9.75468975 0.0518961039 9.75468975"></polygon>
        <polygon id="path-8"
                 points="0.0104277056 -3.46320346e-05 13.5201385 -3.46320346e-05 13.5201385 5.85281385 0.0104277056 5.85281385"></polygon>
        <polygon id="path-10"
                 points="0.0311376623 -3.46320346e-05 10.992 -3.46320346e-05 10.992 5.85281385 0.0311376623 5.85281385"></polygon>
        <polygon id="path-12"
                 points="0.136212524 0.0947248577 3.22220873 0.0947248577 3.22220873 3.18064516 0.136212524 3.18064516"></polygon>
        <polygon id="path-14"
                 points="0.00989753321 0.0947248577 3.09604554 0.0947248577 3.09604554 3.18064516 0.00989753321 3.18064516"></polygon>
        <polygon id="path-16"
                 points="0.136212524 0.0947248577 3.22220873 0.0947248577 3.22220873 3.18064516 0.136212524 3.18064516"></polygon>
        <polygon id="path-18"
                 points="0.00989753321 0.0947248577 3.09604554 0.0947248577 3.09604554 3.18064516 0.00989753321 3.18064516"></polygon>
    </defs>
    <g id="[error-pages]" stroke="none" stroke-width="1" fill="none" fill-rule="evenodd">
        <g id="CPM---error-[smt-went-wrong]" transform="translate(-566.000000, -333.000000)">
            <g id="Group" transform="translate(566.000000, 308.000000)">
                <g id="error-empty-state">
                    <rect id="Rectangle" fill="url(#linearGradient-1)" fill-rule="nonzero" x="0" y="131" width="300"
                          height="61"></rect>
                    <g id="Group-3" transform="translate(0.000000, 79.000000)">
                        <mask id="mask-3" fill="white">
                            <use xlink:href="#path-2"></use>
                        </mask>
                        <g id="Clip-2"></g>
                        <polygon id="Fill-1" fill="#ECECF1" fill-rule="nonzero" mask="url(#mask-3)"
                                 points="299.950343 4.542 299.950343 78.94995 -7.50000001e-06 78.94995 -7.50000001e-06 37.29195 2.6664675 37.29195 2.6664675 33.6045 8.6759925 33.6045 8.6759925 30.7185 11.2979925 30.7185 11.2979925 9.903525 24.8079675 9.903525 24.8079675 41.073975 35.2299675 41.073975 35.2299675 32.699925 44.5175175 32.699925 44.5175175 24.5265 52.1469675 29.643975 52.1469675 39.1515 68.8244175 39.1515 68.8244175 33.0825 75.2519175 33.0825 75.2519175 16.895025 86.2574175 16.895025 86.2574175 29.643975 94.9639425 29.643975 94.9639425 4.542 107.301443 4.542 107.301443 36.3885 111.343943 36.3885 111.343943 24.6015 117.771442 19.43055 117.771442 3 128.777392 3 128.777392 20.01345 137.683417 20.01345 137.683417 30.7185 145.136918 30.7185 145.136918 21.26505 151.870867 21.26505 151.870867 37.29195 157.951867 37.29195 157.951867 33.6045 163.961392 33.6045 163.961392 30.7185 166.583393 30.7185 166.583393 9.903525 180.093367 9.903525 180.093367 41.073975 190.515367 41.073975 190.515367 32.699925 199.802842 32.699925 199.802842 24.5265 207.432368 29.643975 207.432368 46.40445 212.735392 46.40445 212.735392 39.1515 227.871368 39.1515 227.871368 51.192 239.257342 51.192 239.257342 39.1515 243.203843 39.1515 243.203843 30.82545 252.839393 30.82545 252.839393 39.1515 254.389868 39.1515 254.389868 46.40445 262.744343 46.40445 262.744343 33.0825 269.171843 33.0825 269.171843 16.895025 280.177343 16.895025 280.177343 29.643975 288.883793 29.643975 288.883793 4.542"></polygon>
                    </g>
                    <g id="Group-10" transform="translate(1.000000, 138.000000)">
                        <g id="Group-9" transform="translate(0.000000, 0.049417)">
                            <path d="M296.527211,46.9105291 C296.527211,47.1769029 295.502199,47.4367373 293.549866,47.6882114 C279.805813,49.4566418 220.100026,50.7876829 148.52726,50.7876829 C85.9062056,50.7876829 32.3683953,49.7687908 10.7512595,48.3293957 C4.15179243,47.8901025 0.527211079,47.4115734 0.527211079,46.9105291 C0.527211079,46.4086571 4.17461638,45.9281414 10.8128448,45.4878548 C32.4699225,44.0502808 85.9658233,43.0333754 148.52726,43.0333754 C220.040901,43.0333754 279.707434,44.361602 293.516122,46.1282114 C295.490492,46.3814238 296.527211,46.6422515 296.527211,46.9105291"
                                  id="Fill-7" fill="#BCD1F6"></path>
                            <g id="Group-34" transform="translate(18.000000, 21.950583)">
                                <polygon id="Fill-15" fill="#BCD1F6"
                                         points="2.45186916 18.2018692 20.3182243 18.2018692 20.3182243 0.335747664 2.45186916 0.335747664"></polygon>
                                <polygon id="Fill-17" fill="#759EE6"
                                         points="4.12056075 16.5329439 18.6495327 16.5329439 18.6495327 2.00420561 4.12056075 2.00420561"></polygon>
                                <polygon id="Fill-18" fill="#BCD1F6"
                                         points="4.12049065 16.5330607 4.12049065 15.3531542 17.4695561 2.00432243 18.6494626 2.00432243 18.6494626 3.18422897 5.30063084 16.5330607"></polygon>
                                <polygon id="Fill-19" fill="#BCD1F6"
                                         points="18.6493692 16.5330607 18.6493692 15.3531542 5.30053738 2.00432243 4.1203972 2.00432243 4.1203972 3.18422897 17.4694626 16.5330607"></polygon>
                                <polygon id="Fill-20" fill="#BCD1F6"
                                         points="20.3182243 18.2018692 38.1843458 18.2018692 38.1843458 0.335747664 20.3182243 0.335747664"></polygon>
                                <polygon id="Fill-21" fill="#759EE6"
                                         points="21.9869159 16.5329439 36.5158879 16.5329439 36.5158879 2.00420561 21.9869159 2.00420561"></polygon>
                                <polygon id="Fill-22" fill="#BCD1F6"
                                         points="21.9867991 16.5330607 21.9867991 15.3531542 35.3358645 2.00432243 36.515771 2.00432243 36.515771 3.18422897 23.1667056 16.5330607"></polygon>
                                <polygon id="Fill-23" fill="#BCD1F6"
                                         points="36.5156776 16.5330607 36.5156776 15.3531542 23.1666121 2.00432243 21.9867056 2.00432243 21.9867056 3.18422897 35.335771 16.5330607"></polygon>
                                <path d="M39.585,19.9539953 L1.05135514,19.9539953 C0.470981308,19.9539953 -4.67289719e-05,19.4834346 -4.67289719e-05,18.9025935 C-4.67289719e-05,18.3217523 0.470981308,17.8511916 1.05135514,17.8511916 L39.585,17.8511916 C40.1653738,17.8511916 40.6364019,18.3217523 40.6364019,18.9025935 C40.6364019,19.4834346 40.1653738,19.9539953 39.585,19.9539953"
                                      id="Fill-24" fill="#759EE6"></path>
                                <path d="M39.585,23.9186682 L1.05135514,23.9186682 C0.470981308,23.9186682 -4.67289719e-05,23.4481075 -4.67289719e-05,22.8672664 C-4.67289719e-05,22.2864252 0.470981308,21.8158645 1.05135514,21.8158645 L39.585,21.8158645 C40.1653738,21.8158645 40.6364019,22.2864252 40.6364019,22.8672664 C40.6364019,23.4481075 40.1653738,23.9186682 39.585,23.9186682"
                                      id="Fill-25" fill="#759EE6"></path>
                                <path d="M2.1828972,23.9186682 C1.60252336,23.9186682 1.13149533,23.4481075 1.13149533,22.8672664 L1.13149533,18.9025467 C1.13149533,18.3217056 1.60252336,17.8511449 2.1828972,17.8511449 C2.76327103,17.8511449 3.23429907,18.3217056 3.23429907,18.9025467 L3.23429907,22.8672664 C3.23429907,23.4481075 2.76327103,23.9186682 2.1828972,23.9186682"
                                      id="Fill-26" fill="#759EE6"></path>
                                <path d="M7.3646028,23.9186682 C6.78422897,23.9186682 6.31320093,23.4481075 6.31320093,22.8672664 L6.31320093,18.9025467 C6.31320093,18.3217056 6.78422897,17.8511449 7.3646028,17.8511449 C7.94497664,17.8511449 8.41600467,18.3217056 8.41600467,18.9025467 L8.41600467,22.8672664 C8.41600467,23.4481075 7.94497664,23.9186682 7.3646028,23.9186682"
                                      id="Fill-27" fill="#759EE6"></path>
                                <path d="M12.5456308,23.9186682 C11.965257,23.9186682 11.494229,23.4481075 11.494229,22.8672664 L11.494229,18.9025467 C11.494229,18.3217056 11.965257,17.8511449 12.5456308,17.8511449 C13.1260047,17.8511449 13.5970327,18.3217056 13.5970327,18.9025467 L13.5970327,22.8672664 C13.5970327,23.4481075 13.1260047,23.9186682 12.5456308,23.9186682"
                                      id="Fill-28" fill="#759EE6"></path>
                                <path d="M17.7273364,23.9186682 C17.1469626,23.9186682 16.6759346,23.4481075 16.6759346,22.8672664 L16.6759346,18.9025467 C16.6759346,18.3217056 17.1469626,17.8511449 17.7273364,17.8511449 C18.3077103,17.8511449 18.7787383,18.3217056 18.7787383,18.9025467 L18.7787383,22.8672664 C18.7787383,23.4481075 18.3077103,23.9186682 17.7273364,23.9186682"
                                      id="Fill-29" fill="#759EE6"></path>
                                <path d="M22.9090654,23.9186682 C22.3286916,23.9186682 21.8576636,23.4481075 21.8576636,22.8672664 L21.8576636,18.9025467 C21.8576636,18.3217056 22.3286916,17.8511449 22.9090654,17.8511449 C23.4894393,17.8511449 23.9604673,18.3217056 23.9604673,18.9025467 L23.9604673,22.8672664 C23.9604673,23.4481075 23.4894393,23.9186682 22.9090654,23.9186682"
                                      id="Fill-30" fill="#759EE6"></path>
                                <path d="M28.090771,23.9186682 C27.5103972,23.9186682 27.0393692,23.4481075 27.0393692,22.8672664 L27.0393692,18.9025467 C27.0393692,18.3217056 27.5103972,17.8511449 28.090771,17.8511449 C28.6711449,17.8511449 29.1421729,18.3217056 29.1421729,18.9025467 L29.1421729,22.8672664 C29.1421729,23.4481075 28.6711449,23.9186682 28.090771,23.9186682"
                                      id="Fill-31" fill="#759EE6"></path>
                                <path d="M33.2717991,23.9186682 C32.6914252,23.9186682 32.2203972,23.4481075 32.2203972,22.8672664 L32.2203972,18.9025467 C32.2203972,18.3217056 32.6914252,17.8511449 33.2717991,17.8511449 C33.8521729,17.8511449 34.3232009,18.3217056 34.3232009,18.9025467 L34.3232009,22.8672664 C34.3232009,23.4481075 33.8521729,23.9186682 33.2717991,23.9186682"
                                      id="Fill-32" fill="#759EE6"></path>
                                <path d="M38.453528,23.9186682 C37.8731542,23.9186682 37.4021262,23.4481075 37.4021262,22.8672664 L37.4021262,18.9025467 C37.4021262,18.3217056 37.8731542,17.8511449 38.453528,17.8511449 C39.0339019,17.8511449 39.5049299,18.3217056 39.5049299,18.9025467 L39.5049299,22.8672664 C39.5049299,23.4481075 39.0339019,23.9186682 38.453528,23.9186682"
                                      id="Fill-33" fill="#759EE6"></path>
                            </g>
                            <g id="Group-34-Copy" transform="translate(106.000000, 0.950583)">
                                <polygon id="Fill-15" fill="#BCD1F6"
                                         points="2.45186916 18.2018692 20.3182243 18.2018692 20.3182243 0.335747664 2.45186916 0.335747664"></polygon>
                                <polygon id="Fill-17" fill="#759EE6"
                                         points="4.12056075 16.5329439 18.6495327 16.5329439 18.6495327 2.00420561 4.12056075 2.00420561"></polygon>
                                <polygon id="Fill-18" fill="#BCD1F6"
                                         points="4.12049065 16.5330607 4.12049065 15.3531542 17.4695561 2.00432243 18.6494626 2.00432243 18.6494626 3.18422897 5.30063084 16.5330607"></polygon>
                                <polygon id="Fill-19" fill="#BCD1F6"
                                         points="18.6493692 16.5330607 18.6493692 15.3531542 5.30053738 2.00432243 4.1203972 2.00432243 4.1203972 3.18422897 17.4694626 16.5330607"></polygon>
                                <polygon id="Fill-20" fill="#BCD1F6"
                                         points="20.3182243 18.2018692 38.1843458 18.2018692 38.1843458 0.335747664 20.3182243 0.335747664"></polygon>
                                <polygon id="Fill-21" fill="#759EE6"
                                         points="21.9869159 16.5329439 36.5158879 16.5329439 36.5158879 2.00420561 21.9869159 2.00420561"></polygon>
                                <polygon id="Fill-22" fill="#BCD1F6"
                                         points="21.9867991 16.5330607 21.9867991 15.3531542 35.3358645 2.00432243 36.515771 2.00432243 36.515771 3.18422897 23.1667056 16.5330607"></polygon>
                                <polygon id="Fill-23" fill="#BCD1F6"
                                         points="36.5156776 16.5330607 36.5156776 15.3531542 23.1666121 2.00432243 21.9867056 2.00432243 21.9867056 3.18422897 35.335771 16.5330607"></polygon>
                                <path d="M39.585,19.9539953 L1.05135514,19.9539953 C0.470981308,19.9539953 -4.67289719e-05,19.4834346 -4.67289719e-05,18.9025935 C-4.67289719e-05,18.3217523 0.470981308,17.8511916 1.05135514,17.8511916 L39.585,17.8511916 C40.1653738,17.8511916 40.6364019,18.3217523 40.6364019,18.9025935 C40.6364019,19.4834346 40.1653738,19.9539953 39.585,19.9539953"
                                      id="Fill-24" fill="#759EE6"></path>
                                <path d="M39.585,23.9186682 L1.05135514,23.9186682 C0.470981308,23.9186682 -4.67289719e-05,23.4481075 -4.67289719e-05,22.8672664 C-4.67289719e-05,22.2864252 0.470981308,21.8158645 1.05135514,21.8158645 L39.585,21.8158645 C40.1653738,21.8158645 40.6364019,22.2864252 40.6364019,22.8672664 C40.6364019,23.4481075 40.1653738,23.9186682 39.585,23.9186682"
                                      id="Fill-25" fill="#759EE6"></path>
                                <path d="M2.1828972,23.9186682 C1.60252336,23.9186682 1.13149533,23.4481075 1.13149533,22.8672664 L1.13149533,18.9025467 C1.13149533,18.3217056 1.60252336,17.8511449 2.1828972,17.8511449 C2.76327103,17.8511449 3.23429907,18.3217056 3.23429907,18.9025467 L3.23429907,22.8672664 C3.23429907,23.4481075 2.76327103,23.9186682 2.1828972,23.9186682"
                                      id="Fill-26" fill="#759EE6"></path>
                                <path d="M7.3646028,23.9186682 C6.78422897,23.9186682 6.31320093,23.4481075 6.31320093,22.8672664 L6.31320093,18.9025467 C6.31320093,18.3217056 6.78422897,17.8511449 7.3646028,17.8511449 C7.94497664,17.8511449 8.41600467,18.3217056 8.41600467,18.9025467 L8.41600467,22.8672664 C8.41600467,23.4481075 7.94497664,23.9186682 7.3646028,23.9186682"
                                      id="Fill-27" fill="#759EE6"></path>
                                <path d="M12.5456308,23.9186682 C11.965257,23.9186682 11.494229,23.4481075 11.494229,22.8672664 L11.494229,18.9025467 C11.494229,18.3217056 11.965257,17.8511449 12.5456308,17.8511449 C13.1260047,17.8511449 13.5970327,18.3217056 13.5970327,18.9025467 L13.5970327,22.8672664 C13.5970327,23.4481075 13.1260047,23.9186682 12.5456308,23.9186682"
                                      id="Fill-28" fill="#759EE6"></path>
                                <path d="M17.7273364,23.9186682 C17.1469626,23.9186682 16.6759346,23.4481075 16.6759346,22.8672664 L16.6759346,18.9025467 C16.6759346,18.3217056 17.1469626,17.8511449 17.7273364,17.8511449 C18.3077103,17.8511449 18.7787383,18.3217056 18.7787383,18.9025467 L18.7787383,22.8672664 C18.7787383,23.4481075 18.3077103,23.9186682 17.7273364,23.9186682"
                                      id="Fill-29" fill="#759EE6"></path>
                                <path d="M22.9090654,23.9186682 C22.3286916,23.9186682 21.8576636,23.4481075 21.8576636,22.8672664 L21.8576636,18.9025467 C21.8576636,18.3217056 22.3286916,17.8511449 22.9090654,17.8511449 C23.4894393,17.8511449 23.9604673,18.3217056 23.9604673,18.9025467 L23.9604673,22.8672664 C23.9604673,23.4481075 23.4894393,23.9186682 22.9090654,23.9186682"
                                      id="Fill-30" fill="#759EE6"></path>
                                <path d="M28.090771,23.9186682 C27.5103972,23.9186682 27.0393692,23.4481075 27.0393692,22.8672664 L27.0393692,18.9025467 C27.0393692,18.3217056 27.5103972,17.8511449 28.090771,17.8511449 C28.6711449,17.8511449 29.1421729,18.3217056 29.1421729,18.9025467 L29.1421729,22.8672664 C29.1421729,23.4481075 28.6711449,23.9186682 28.090771,23.9186682"
                                      id="Fill-31" fill="#759EE6"></path>
                                <path d="M33.2717991,23.9186682 C32.6914252,23.9186682 32.2203972,23.4481075 32.2203972,22.8672664 L32.2203972,18.9025467 C32.2203972,18.3217056 32.6914252,17.8511449 33.2717991,17.8511449 C33.8521729,17.8511449 34.3232009,18.3217056 34.3232009,18.9025467 L34.3232009,22.8672664 C34.3232009,23.4481075 33.8521729,23.9186682 33.2717991,23.9186682"
                                      id="Fill-32" fill="#759EE6"></path>
                                <path d="M38.453528,23.9186682 C37.8731542,23.9186682 37.4021262,23.4481075 37.4021262,22.8672664 L37.4021262,18.9025467 C37.4021262,18.3217056 37.8731542,17.8511449 38.453528,17.8511449 C39.0339019,17.8511449 39.5049299,18.3217056 39.5049299,18.9025467 L39.5049299,22.8672664 C39.5049299,23.4481075 39.0339019,23.9186682 38.453528,23.9186682"
                                      id="Fill-33" fill="#759EE6"></path>
                            </g>
                        </g>
                    </g>
                    <g id="Group-51" transform="translate(165.000000, 175.000000)">
                        <path d="M23.7857431,8.75474747 L0,8.75474747 C0.728600289,6.53269841 2.33385281,4.61125541 4.48761905,3.2633189 C6.54932179,1.97298701 9.11370851,1.20819625 11.8928139,1.20819625 C17.5753535,1.20819625 22.3597114,4.40554113 23.7857431,8.75474747"
                              id="Fill-1" fill="#759EE6"></path>
                        <path d="M23.7857431,8.75474747 L19.1017605,8.75474747 C18.9304473,6.88196248 17.9993074,5.00894661 15.4790188,3.77558442 C11.602886,1.87878788 7.39924964,2.43082251 4.48761905,3.2633189 C6.54932179,1.97298701 9.11370851,1.20819625 11.8928139,1.20819625 C17.5753535,1.20819625 22.3597114,4.40554113 23.7857431,8.75474747"
                              id="Fill-3" fill="#2F6FDC"></path>
                        <g id="Group-27" transform="translate(15.526696, 0.000058)">
                            <mask id="mask-5" fill="white">
                                <use xlink:href="#path-4"></use>
                            </mask>
                            <g id="Clip-26"></g>
                            <path d="M22.53357,9.75468975 L0.0173795094,9.75468975 C0.707076479,6.88242424 2.22667244,4.39873016 4.26546032,2.65645022 C6.21709091,0.988513709 8.64462338,-5.77200577e-05 11.2754459,-5.77200577e-05 C16.6546089,-5.77200577e-05 21.183671,4.13292929 22.53357,9.75468975"
                                  id="Fill-25" fill="#BCD1F6" mask="url(#mask-5)"></path>
                        </g>
                        <g id="Group-30" transform="translate(19.740260, 0.000058)">
                            <mask id="mask-7" fill="white">
                                <use xlink:href="#path-6"></use>
                            </mask>
                            <g id="Clip-29"></g>
                            <path d="M18.3200058,9.75468975 L13.8860087,9.75468975 C13.723873,7.33396825 12.84243,4.91284271 10.4566869,3.31861472 C6.7874228,0.866782107 2.80808658,1.58031746 0.0518961039,2.65645022 C2.0035267,0.988513709 4.43105916,-5.77200577e-05 7.06188167,-5.77200577e-05 C12.4410447,-5.77200577e-05 16.9701068,4.13292929 18.3200058,9.75468975"
                                  id="Fill-28" fill="#82A7E8" mask="url(#mask-7)"></path>
                        </g>
                    </g>
                    <g id="Group-51-Copy"
                       transform="translate(283.000000, 182.000000) scale(-1, 1) translate(-283.000000, -182.000000) translate(271.000000, 179.000000)">
                        <path d="M14.2714459,5.25284848 L0,5.25284848 C0.437160173,3.91961905 1.40031169,2.76675325 2.69257143,1.95799134 C3.92959307,1.18379221 5.46822511,0.724917749 7.13568831,0.724917749 C10.5452121,0.724917749 13.4158268,2.64332468 14.2714459,5.25284848"
                              id="Fill-1" fill="#759EE6"></path>
                        <path d="M14.2714459,5.25284848 L11.4610563,5.25284848 C11.3582684,4.12917749 10.7995844,3.00536797 9.28741126,2.26535065 C6.9617316,1.12727273 4.43954978,1.45849351 2.69257143,1.95799134 C3.92959307,1.18379221 5.46822511,0.724917749 7.13568831,0.724917749 C10.5452121,0.724917749 13.4158268,2.64332468 14.2714459,5.25284848"
                              id="Fill-3" fill="#2F6FDC"></path>
                        <g id="Group-27" transform="translate(9.316017, 0.000035)">
                            <mask id="mask-9" fill="white">
                                <use xlink:href="#path-8"></use>
                            </mask>
                            <g id="Clip-26"></g>
                            <path d="M13.520142,5.85281385 L0.0104277056,5.85281385 C0.424245887,4.12945455 1.33600346,2.6392381 2.55927619,1.59387013 C3.73025455,0.593108225 5.18677403,-3.46320346e-05 6.76526753,-3.46320346e-05 C9.99276537,-3.46320346e-05 12.7102026,2.47975758 13.520142,5.85281385"
                                  id="Fill-25" fill="#BCD1F6" mask="url(#mask-9)"></path>
                        </g>
                        <g id="Group-30" transform="translate(11.844156, 0.000035)">
                            <mask id="mask-11" fill="white">
                                <use xlink:href="#path-10"></use>
                            </mask>
                            <g id="Clip-29"></g>
                            <path d="M10.9920035,5.85281385 L8.33160519,5.85281385 C8.23432381,4.40038095 7.70545801,2.94770563 6.27401212,1.99116883 C4.07245368,0.520069264 1.68485195,0.948190476 0.0311376623,1.59387013 C1.20211602,0.593108225 2.6586355,-3.46320346e-05 4.237129,-3.46320346e-05 C7.46462684,-3.46320346e-05 10.1820641,2.47975758 10.9920035,5.85281385"
                                  id="Fill-28" fill="#82A7E8" mask="url(#mask-11)"></path>
                        </g>
                    </g>
                    <g id="crane" transform="translate(134.000000, 25.000000)">
                        <polygon id="Fill-1" fill="#2F6FDC"
                                 points="158.72585 44.3197279 172.869796 44.3197279 172.869796 39.1390476 158.72585 39.1390476"></polygon>
                        <polygon id="Fill-2" fill="#82A7E8"
                                 points="168.882381 38.4827075 115.096259 1.00787755 36.119932 33.5593061 35.9506803 33.1484218 115.039116 0.550870748 115.151224 0.504612245 115.250816 0.574 169.136259 38.1182177"></polygon>
                        <polygon id="Fill-3" fill="#82A7E8"
                                 points="113.907075 47.6130612 116.340408 47.6130612 116.340408 0.135646259 113.907075 0.135646259"></polygon>
                        <polygon id="Fill-4" fill="#82A7E8"
                                 points="35.5317687 80.4754966 31.3279592 44.1003946 31.5085034 44.0794422 35.7123129 80.4546803"></polygon>
                        <polygon id="Fill-5" fill="#82A7E8"
                                 points="36.8676054 80.4754966 36.6870612 80.4546803 40.8910068 44.0794422 41.071551 44.1003946"></polygon>
                        <g id="Group-275" transform="translate(0.000000, 25.004082)">
                            <path d="M33.5534014,19.5375646 C33.5534014,20.3570204 32.8891837,21.0212381 32.0697279,21.0212381 C31.2502721,21.0212381 30.5859184,20.3570204 30.5859184,19.5375646 C30.5859184,18.7182449 31.2502721,18.0538912 32.0697279,18.0538912 C32.8891837,18.0538912 33.5534014,18.7182449 33.5534014,19.5375646"
                                  id="Fill-6" fill="#82A7E8"></path>
                            <path d="M41.4845578,19.5375646 C41.4845578,20.3570204 40.8202041,21.0212381 40.0008844,21.0212381 C39.1814286,21.0212381 38.5170748,20.3570204 38.5170748,19.5375646 C38.5170748,18.7182449 39.1814286,18.0538912 40.0008844,18.0538912 C40.8202041,18.0538912 41.4845578,18.7182449 41.4845578,19.5375646"
                                  id="Fill-8" fill="#82A7E8"></path>
                            <polygon id="Fill-10" fill="#82A7E8"
                                     points="34.9001361 60.3081633 37.447619 60.3081633 37.447619 59.3488435 34.9001361 59.3488435"></polygon>
                            <polygon id="Fill-12" fill="#82A7E8"
                                     points="31.4182313 19.9805442 40.6219048 19.9805442 40.6219048 18.1912925 31.4182313 18.1912925"></polygon>
                            <polygon id="Fill-14" fill="#82A7E8"
                                     points="107.823537 126.360952 108.62 126.360952 108.62 23.9402721 107.823537 23.9402721"></polygon>
                            <polygon id="Fill-15" fill="#82A7E8"
                                     points="120.343946 126.360952 121.140408 126.360952 121.140408 23.9402721 120.343946 23.9402721"></polygon>
                            <polygon id="Fill-16" fill="#2F6FDC"
                                     points="94.087932 132.838014 103.154463 127.952163 103.917184 129.568082 94.4071156 133.514204"></polygon>
                            <path d="M95.3680816,133.37785 C95.3680816,134.000299 94.8634558,134.504925 94.2411429,134.504925 C93.6186939,134.504925 93.1142041,134.000299 93.1142041,133.37785 C93.1142041,132.755537 93.6186939,132.251048 94.2411429,132.251048 C94.8634558,132.251048 95.3680816,132.755537 95.3680816,133.37785"
                                  id="Fill-17" fill="#2F6FDC"></path>
                            <path d="M95.9067211,133.37785 L92.5755646,133.37785 C92.4193741,133.37785 92.2917551,133.505469 92.2917551,133.66166 L92.2917551,134.454721 C92.2917551,134.610776 92.4193741,134.738395 92.5755646,134.738395 L95.9067211,134.738395 C96.0627755,134.738395 96.1903946,134.610776 96.1903946,134.454721 L96.1903946,133.66166 C96.1903946,133.505469 96.0627755,133.37785 95.9067211,133.37785"
                                  id="Fill-18" fill="#2F6FDC"></path>
                            <polygon id="Fill-20" fill="#2F6FDC"
                                     points="135.232027 132.838014 126.165497 127.952163 125.402776 129.568082 134.912844 133.514204"></polygon>
                            <path d="M133.951878,133.37785 C133.951878,134.000299 134.456503,134.504925 135.078816,134.504925 C135.701265,134.504925 136.205755,134.000299 136.205755,133.37785 C136.205755,132.755537 135.701265,132.251048 135.078816,132.251048 C134.456503,132.251048 133.951878,132.755537 133.951878,133.37785"
                                  id="Fill-21" fill="#2F6FDC"></path>
                            <path d="M133.413238,133.37785 L136.744531,133.37785 C136.900585,133.37785 137.028204,133.505469 137.028204,133.66166 L137.028204,134.454721 C137.028204,134.610776 136.900585,134.738395 136.744531,134.738395 L133.413238,134.738395 C133.25732,134.738395 133.129565,134.610776 133.129565,134.454721 L133.129565,133.66166 C133.129565,133.505469 133.25732,133.37785 133.413238,133.37785"
                                  id="Fill-22" fill="#2F6FDC"></path>
                            <path d="M127.142503,132.951483 L101.821279,132.951483 L101.821279,129.133932 C101.821279,128.337878 102.466721,127.692299 103.262912,127.692299 L125.700735,127.692299 C126.497061,127.692299 127.142503,128.337878 127.142503,129.133932 L127.142503,132.951483 Z"
                                  id="Fill-24" fill="#BCD1F6"></path>
                            <polygon id="Fill-25" fill="#2F6FDC"
                                     points="101.821224 132.951429 127.142449 132.951429 127.142449 132.017415 101.821224 132.017415"></polygon>
                            <path d="M108.886639,131.920585 C108.886639,133.546163 107.568816,134.863986 105.943374,134.863986 C104.317796,134.863986 102.999973,133.546163 102.999973,131.920585 C102.999973,130.295143 104.317796,128.97732 105.943374,128.97732 C107.568816,128.97732 108.886639,130.295143 108.886639,131.920585"
                                  id="Fill-26" fill="#82A7E8"></path>
                            <path d="M107.562095,131.920585 C107.562095,132.814599 106.837333,133.539361 105.943456,133.539361 C105.049306,133.539361 104.324544,132.814599 104.324544,131.920585 C104.324544,131.026571 105.049306,130.30181 105.943456,130.30181 C106.837333,130.30181 107.562095,131.026571 107.562095,131.920585"
                                  id="Fill-27" fill="#FFFFFF"></path>
                            <path d="M125.963864,131.920585 C125.963864,133.546163 124.645905,134.863986 123.020463,134.863986 C121.394884,134.863986 120.077061,133.546163 120.077061,131.920585 C120.077061,130.295143 121.394884,128.97732 123.020463,128.97732 C124.645905,128.97732 125.963864,130.295143 125.963864,131.920585"
                                  id="Fill-29" fill="#82A7E8"></path>
                            <path d="M124.63932,131.920585 C124.63932,132.814599 123.914558,133.539361 123.020544,133.539361 C122.126395,133.539361 121.401633,132.814599 121.401633,131.920585 C121.401633,131.026571 122.126395,130.30181 123.020544,130.30181 C123.914558,130.30181 124.63932,131.026571 124.63932,131.920585"
                                  id="Fill-30" fill="#FFFFFF"></path>
                            <path d="M118.666476,130.966871 L110.297224,130.966871 C109.913823,130.966871 109.600082,130.653129 109.600082,130.269728 L109.600082,129.091224 C109.600082,128.707823 109.913823,128.394082 110.297224,128.394082 L118.666476,128.394082 C119.049878,128.394082 119.363619,128.707823 119.363619,129.091224 L119.363619,130.269728 C119.363619,130.653129 119.049878,130.966871 118.666476,130.966871"
                                  id="Fill-32" fill="#FFFFFF"></path>
                            <polygon id="Fill-34" fill="#82A7E8"
                                     points="107.823401 127.692245 121.140408 127.692245 121.140408 125.029524 107.823401 125.029524"></polygon>
                            <polygon id="Fill-35" fill="#82A7E8"
                                     points="120.966517 123.564259 120.748966 123.840721 107.997265 113.807524 108.21468 113.531061"></polygon>
                            <polygon id="Fill-36" fill="#82A7E8"
                                     points="107.997238 123.564259 108.214789 123.840721 120.96649 113.807524 120.749075 113.531061"></polygon>
                            <polygon id="Fill-37" fill="#82A7E8"
                                     points="107.823401 124.04517 121.140408 124.04517 121.140408 123.218912 107.823401 123.218912"></polygon>
                            <polygon id="Fill-40" fill="#82A7E8"
                                     points="107.823401 114.117279 121.140408 114.117279 121.140408 113.29102 107.823401 113.29102"></polygon>
                            <polygon id="Fill-43" fill="#82A7E8"
                                     points="120.966517 113.636408 120.748966 113.912871 107.997265 103.879673 108.21468 103.603211"></polygon>
                            <polygon id="Fill-44" fill="#82A7E8"
                                     points="107.997238 113.636408 108.214789 113.912871 120.96649 103.879673 120.749075 103.603211"></polygon>
                            <polygon id="Fill-51" fill="#82A7E8"
                                     points="120.966517 103.708558 120.748966 103.98502 107.997265 93.9518231 108.21468 93.6753605"></polygon>
                            <polygon id="Fill-52" fill="#82A7E8"
                                     points="107.997238 103.708558 108.214789 103.98502 120.96649 93.9518231 120.749075 93.6753605"></polygon>
                            <polygon id="Fill-53" fill="#82A7E8"
                                     points="107.823401 104.189388 121.140408 104.189388 121.140408 103.363129 107.823401 103.363129"></polygon>
                            <polygon id="Fill-59" fill="#82A7E8"
                                     points="120.966517 93.7806939 120.748966 94.0572925 107.997265 84.0239592 108.21468 83.7474966"></polygon>
                            <polygon id="Fill-60" fill="#82A7E8"
                                     points="107.997238 93.7806939 108.214789 94.0572925 120.96649 84.0239592 120.749075 83.7474966"></polygon>
                            <polygon id="Fill-61" fill="#82A7E8"
                                     points="107.823401 94.2614966 121.140408 94.2614966 121.140408 93.4352381 107.823401 93.4352381"></polygon>
                            <polygon id="Fill-67" fill="#82A7E8"
                                     points="120.966517 83.8529796 120.748966 84.1294422 107.997265 74.0961088 108.21468 73.8196463"></polygon>
                            <polygon id="Fill-68" fill="#82A7E8"
                                     points="107.997238 83.8529796 108.214789 84.1294422 120.96649 74.0961088 120.749075 73.8196463"></polygon>
                            <polygon id="Fill-69" fill="#82A7E8"
                                     points="107.823401 84.3337415 121.140408 84.3337415 121.140408 83.507483 107.823401 83.507483"></polygon>
                            <polygon id="Fill-75" fill="#82A7E8"
                                     points="120.966517 73.9251293 120.748966 74.2015918 107.997265 64.1682585 108.21468 63.8917959"></polygon>
                            <polygon id="Fill-76" fill="#82A7E8"
                                     points="107.997238 73.9251293 108.214789 74.2015918 120.96649 64.1682585 120.749075 63.8917959"></polygon>
                            <polygon id="Fill-77" fill="#82A7E8"
                                     points="107.823401 74.4059864 121.140408 74.4059864 121.140408 73.5795918 107.823401 73.5795918"></polygon>
                            <polygon id="Fill-83" fill="#82A7E8"
                                     points="120.966517 63.9972653 120.748966 64.2737279 107.997265 54.2405306 108.21468 53.963932"></polygon>
                            <polygon id="Fill-84" fill="#82A7E8"
                                     points="107.997238 63.9972653 108.214789 64.2737279 120.96649 54.2405306 120.749075 53.963932"></polygon>
                            <polygon id="Fill-85" fill="#82A7E8"
                                     points="107.823401 64.4780952 121.140408 64.4780952 121.140408 63.6517007 107.823401 63.6517007"></polygon>
                            <polygon id="Fill-91" fill="#82A7E8"
                                     points="120.966517 54.069415 120.748966 54.3458776 107.997265 44.3126803 108.21468 44.0362177"></polygon>
                            <polygon id="Fill-92" fill="#82A7E8"
                                     points="107.997238 54.069415 108.214789 54.3458776 120.96649 44.3126803 120.749075 44.0362177"></polygon>
                            <polygon id="Fill-93" fill="#82A7E8"
                                     points="107.823401 44.5502041 121.140408 44.5502041 121.140408 43.7238095 107.823401 43.7238095"></polygon>
                            <polygon id="Fill-99" fill="#82A7E8"
                                     points="120.966517 44.1415646 120.748966 44.4180272 107.997265 34.3848299 108.21468 34.1083673"></polygon>
                            <polygon id="Fill-100" fill="#82A7E8"
                                     points="107.997238 44.1415646 108.214789 44.4180272 120.96649 34.3848299 120.749075 34.1083673"></polygon>
                            <polygon id="Fill-101" fill="#82A7E8"
                                     points="107.823401 54.622449 121.140408 54.622449 121.140408 53.7960544 107.823401 53.7960544"></polygon>
                            <polygon id="Fill-107" fill="#82A7E8"
                                     points="120.966517 34.2137143 120.748966 34.4901769 107.997265 24.4569796 108.21468 24.180517"></polygon>
                            <polygon id="Fill-108" fill="#82A7E8"
                                     points="107.997238 34.2137143 108.214789 34.4901769 120.96649 24.4569796 120.749075 24.180517"></polygon>
                            <polygon id="Fill-109" fill="#82A7E8"
                                     points="107.823401 34.6945578 121.140408 34.6945578 121.140408 33.8682993 107.823401 33.8682993"></polygon>
                            <polygon id="Fill-112" fill="#82A7E8"
                                     points="107.823401 24.7666667 121.140408 24.7666667 121.140408 23.9402721 107.823401 23.9402721"></polygon>
                            <polygon id="Fill-115" fill="#82A7E8"
                                     points="113.619592 17.2965986 173.599728 17.2965986 173.599728 16.7190476 113.619592 16.7190476"></polygon>
                            <polygon id="Fill-116" fill="#82A7E8"
                                     points="113.619592 9.95918367 173.599728 9.95918367 173.599728 9.49238095 113.619592 9.49238095"></polygon>
                            <polygon id="Fill-117" fill="#82A7E8"
                                     points="173.53215 9.59429932 173.808612 9.72178231 163.775279 17.1947075 163.498816 17.0672245"></polygon>
                            <polygon id="Fill-118" fill="#82A7E8"
                                     points="173.53215 17.1947483 173.808612 17.0672653 163.775279 9.59434014 163.498816 9.72182313"></polygon>
                            <polygon id="Fill-119" fill="#82A7E8"
                                     points="173.186531 17.2965986 174.012925 17.2965986 174.012925 9.49251701 173.186531 9.49251701"></polygon>
                            <polygon id="Fill-122" fill="#FBB028"
                                     points="163.258776 17.2965986 164.08517 17.2965986 164.08517 9.49251701 163.258776 9.49251701"></polygon>
                            <polygon id="Fill-125" fill="#82A7E8"
                                     points="163.604299 9.59429932 163.880762 9.72178231 153.847565 17.1947075 153.570966 17.0672245"></polygon>
                            <polygon id="Fill-126" fill="#82A7E8"
                                     points="163.604299 17.1947483 163.880762 17.0672653 153.847565 9.59434014 153.570966 9.72182313"></polygon>
                            <polygon id="Fill-127" fill="#82A7E8"
                                     points="163.258776 17.2965986 164.08517 17.2965986 164.08517 9.49251701 163.258776 9.49251701"></polygon>
                            <polygon id="Fill-130" fill="#82A7E8"
                                     points="153.330884 17.2965986 154.157279 17.2965986 154.157279 9.49251701 153.330884 9.49251701"></polygon>
                            <polygon id="Fill-133" fill="#82A7E8"
                                     points="153.676449 9.59429932 153.952912 9.72178231 143.919714 17.1947075 143.643252 17.0672245"></polygon>
                            <polygon id="Fill-134" fill="#82A7E8"
                                     points="153.676449 17.1947483 153.952912 17.0672653 143.919714 9.59434014 143.643252 9.72182313"></polygon>
                            <polygon id="Fill-138" fill="#82A7E8"
                                     points="143.402993 17.2965986 144.229388 17.2965986 144.229388 9.49251701 143.402993 9.49251701"></polygon>
                            <polygon id="Fill-141" fill="#82A7E8"
                                     points="143.748585 9.59429932 144.025048 9.72178231 133.99185 17.1947075 133.715388 17.0672245"></polygon>
                            <polygon id="Fill-142" fill="#82A7E8"
                                     points="143.748585 17.1947483 144.025048 17.0672653 133.99185 9.59434014 133.715388 9.72182313"></polygon>
                            <polygon id="Fill-146" fill="#82A7E8"
                                     points="133.475374 17.2965986 134.301633 17.2965986 134.301633 9.49251701 133.475374 9.49251701"></polygon>
                            <polygon id="Fill-149" fill="#82A7E8"
                                     points="133.820735 9.59429932 134.097197 9.72178231 124.064 17.1947075 123.787537 17.0672245"></polygon>
                            <polygon id="Fill-150" fill="#82A7E8"
                                     points="133.820735 17.1947483 134.097197 17.0672653 124.064 9.59434014 123.787537 9.72182313"></polygon>
                            <polygon id="Fill-154" fill="#82A7E8"
                                     points="123.547483 17.2965986 124.373741 17.2965986 124.373741 9.49251701 123.547483 9.49251701"></polygon>
                            <polygon id="Fill-157" fill="#82A7E8"
                                     points="123.892884 9.59429932 124.169347 9.72178231 114.13615 17.1947075 113.859687 17.0672245"></polygon>
                            <polygon id="Fill-158" fill="#82A7E8"
                                     points="123.892884 17.1947483 124.169347 17.0672653 114.13615 9.59434014 113.859687 9.72182313"></polygon>
                            <polygon id="Fill-162" fill="#FBB028"
                                     points="113.619592 17.2965986 114.44585 17.2965986 114.44585 9.49251701 113.619592 9.49251701"></polygon>
                            <polygon id="Fill-165" fill="#82A7E8"
                                     points="3.52272109 10.4619864 3.52272109 9.66552381 105.943401 3.97953741 105.943401 4.77613605"></polygon>
                            <polygon id="Fill-166" fill="#82A7E8"
                                     points="0 17.2964626 105.943401 17.2964626 105.943401 16.5 0 16.5"></polygon>
                            <polygon id="Fill-167" fill="#82A7E8"
                                     points="6.31940136 17.1228027 6.04293878 16.9052517 16.0761361 9.26797279 16.3525986 9.48552381"></polygon>
                            <polygon id="Fill-168" fill="#82A7E8"
                                     points="6.31940136 9.83930612 6.04293878 10.0568571 16.0761361 17.1228435 16.3525986 16.9052925"></polygon>
                            <polygon id="Fill-169" fill="#82A7E8"
                                     points="5.8385034 17.2965986 6.66489796 17.2965986 6.66489796 9.66557823 5.8385034 9.66557823"></polygon>
                            <polygon id="Fill-172" fill="#82A7E8"
                                     points="5.44217687e-05 16.8764762 3.73515646 9.53212245 4.46821769 9.91361905 0.732979592 17.2579728"></polygon>
                            <polygon id="Fill-175" fill="#82A7E8"
                                     points="15.7663946 17.2965986 16.5927891 17.2965986 16.5927891 9.09414966 15.7663946 9.09414966"></polygon>
                            <polygon id="Fill-178" fill="#82A7E8"
                                     points="16.2472517 17.1228027 15.9707891 16.9052517 26.0039864 8.69668027 26.280449 8.91423129"></polygon>
                            <polygon id="Fill-179" fill="#82A7E8"
                                     points="16.2472517 9.26798639 15.9707891 9.48553741 26.0039864 17.1228163 26.280449 16.9052653"></polygon>
                            <polygon id="Fill-183" fill="#82A7E8"
                                     points="25.6942857 17.2965986 26.5205442 17.2965986 26.5205442 8.52285714 25.6942857 8.52285714"></polygon>
                            <polygon id="Fill-186" fill="#82A7E8"
                                     points="26.1751156 17.1228027 25.8986531 16.9052517 35.9318503 8.12538776 36.2083129 8.34293878"></polygon>
                            <polygon id="Fill-187" fill="#82A7E8"
                                     points="26.1751156 8.69666667 25.8986531 8.91421769 35.9318503 17.1227891 36.2083129 16.9052381"></polygon>
                            <polygon id="Fill-191" fill="#82A7E8"
                                     points="35.6221769 17.2965986 36.4484354 17.2965986 36.4484354 7.95156463 35.6221769 7.95156463"></polygon>
                            <polygon id="Fill-194" fill="#82A7E8"
                                     points="36.102966 17.1228027 35.8265034 16.9052517 45.8597007 7.63994558 46.1361633 7.8574966"></polygon>
                            <polygon id="Fill-195" fill="#82A7E8"
                                     points="36.102966 8.12534694 35.8265034 8.34289796 45.8597007 17.1227619 46.1361633 16.9052109"></polygon>
                            <polygon id="Fill-199" fill="#82A7E8"
                                     points="45.549932 17.2965986 46.3761905 17.2965986 46.3761905 7.4662585 45.549932 7.4662585"></polygon>
                            <polygon id="Fill-202" fill="#82A7E8"
                                     points="46.0308163 17.1228027 45.7542177 16.9052517 55.787551 7.10892517 56.0640136 7.32647619"></polygon>
                            <polygon id="Fill-203" fill="#82A7E8"
                                     points="46.0308163 7.63998639 45.7542177 7.85753741 55.787551 17.1228435 56.0640136 16.9052925"></polygon>
                            <polygon id="Fill-207" fill="#82A7E8"
                                     points="55.4778231 17.2965986 56.3040816 17.2965986 56.3040816 6.93510204 55.4778231 6.93510204"></polygon>
                            <polygon id="Fill-210" fill="#82A7E8"
                                     points="55.9586667 17.1228027 55.682068 16.9052517 65.7154014 6.53763265 65.9918639 6.75518367"></polygon>
                            <polygon id="Fill-211" fill="#82A7E8"
                                     points="55.9586667 7.10897959 55.682068 7.32653061 65.7154014 17.1228571 65.9918639 16.9051701"></polygon>
                            <polygon id="Fill-215" fill="#82A7E8"
                                     points="65.4057143 17.2965986 66.2319728 17.2965986 66.2319728 6.36380952 65.4057143 6.36380952"></polygon>
                            <polygon id="Fill-218" fill="#82A7E8"
                                     points="65.8863946 17.1228027 65.609932 16.9052517 75.6432653 6.0545034 75.9197279 6.27219048"></polygon>
                            <polygon id="Fill-219" fill="#82A7E8"
                                     points="65.8863946 6.53765986 65.609932 6.75521088 75.6432653 17.1228299 75.9197279 16.9052789"></polygon>
                            <polygon id="Fill-223" fill="#82A7E8"
                                     points="75.3334694 17.2965986 76.1598639 17.2965986 76.1598639 5.88081633 75.3334694 5.88081633"></polygon>
                            <polygon id="Fill-226" fill="#82A7E8"
                                     points="75.8142449 17.1228027 75.5377823 16.9052517 85.5711156 5.48321088 85.8475782 5.7007619"></polygon>
                            <polygon id="Fill-227" fill="#82A7E8"
                                     points="75.8142449 6.05455782 75.5377823 6.27210884 85.5711156 17.1228571 85.8475782 16.9051701"></polygon>
                            <polygon id="Fill-231" fill="#82A7E8"
                                     points="85.2612245 17.2964626 86.087619 17.2964626 86.087619 5.30938776 85.2612245 5.30938776"></polygon>
                            <polygon id="Fill-234" fill="#82A7E8"
                                     points="85.7421088 17.1228027 85.4656463 16.9052517 95.4988435 4.91191837 95.7754422 5.12946939"></polygon>
                            <polygon id="Fill-235" fill="#82A7E8"
                                     points="85.7421088 5.4832381 85.4656463 5.70078912 95.4988435 17.1228299 95.7754422 16.9052789"></polygon>
                            <polygon id="Fill-239" fill="#82A7E8"
                                     points="95.1891156 17.2965986 96.0155102 17.2965986 96.0155102 4.73809524 95.1891156 4.73809524"></polygon>
                            <polygon id="Fill-242" fill="#82A7E8"
                                     points="95.6699592 17.1228027 95.3934966 16.9052517 105.426694 4.15341497 105.703156 4.37096599"></polygon>
                            <polygon id="Fill-243" fill="#82A7E8"
                                     points="95.6699592 4.91191837 95.3934966 5.12946939 105.426694 17.1228027 105.703156 16.9052517"></polygon>
                            <polygon id="Fill-247" fill="#FBB028"
                                     points="105.117007 17.2965986 105.943401 17.2965986 105.943401 3.97959184 105.117007 3.97959184"></polygon>
                            <polygon id="Fill-250" fill="#82A7E8"
                                     points="107.823401 23.9402721 121.140408 23.9402721 121.140408 21.277551 107.823401 21.277551"></polygon>
                            <path d="M102.230204,2.61187755 L118.343673,2.61187755 C118.568571,2.61187755 118.752653,2.79595918 118.752653,3.02085714 L118.752653,20.142898 C118.752653,20.3677959 118.568571,20.5518776 118.343673,20.5518776 L107.102857,20.5518776 C104.197959,20.5518776 101.821224,18.1751429 101.821224,15.2702449 L101.821224,3.02085714 C101.821224,2.79595918 102.005306,2.61187755 102.230204,2.61187755"
                                  id="Fill-252" fill="#82A7E8"></path>
                            <path d="M107.203088,3.47451701 L107.203088,11.9792789 C107.203088,12.1956054 107.026082,12.3726122 106.809755,12.3726122 L102.729755,12.3726122 C102.572748,12.3726122 102.436694,12.279415 102.373701,12.1455374 C102.349755,12.0949252 102.336422,12.0385986 102.336422,11.9792789 L102.336422,3.47451701 C102.336422,3.25819048 102.513429,3.08118367 102.729755,3.08118367 L106.809755,3.08118367 C107.026082,3.08118367 107.203088,3.25819048 107.203088,3.47451701"
                                  id="Fill-253" fill="#BCD1F6"></path>
                            <path d="M112.304476,12.372585 L108.224476,12.372585 C108.00815,12.372585 107.831143,12.1955782 107.831143,11.9792517 L107.831143,3.4744898 C107.831143,3.25816327 108.00815,3.08115646 108.224476,3.08115646 L112.304476,3.08115646 C112.520939,3.08115646 112.697946,3.25816327 112.697946,3.4744898 L112.697946,11.9792517 C112.697946,12.1955782 112.520939,12.372585 112.304476,12.372585"
                                  id="Fill-254" fill="#BCD1F6"></path>
                            <path d="M117.799265,12.372585 L113.719265,12.372585 C113.502803,12.372585 113.325796,12.1955782 113.325796,11.9792517 L113.325796,3.4744898 C113.325796,3.25816327 113.502803,3.08115646 113.719265,3.08115646 L117.799265,3.08115646 C118.015592,3.08115646 118.192599,3.25816327 118.192599,3.4744898 L118.192599,11.9792517 C118.192599,12.1955782 118.015592,12.372585 117.799265,12.372585"
                                  id="Fill-255" fill="#BCD1F6"></path>
                            <path d="M118.359293,2.61187755 L102.214531,2.61187755 C101.998204,2.61187755 101.821197,2.43487075 101.821197,2.21854422 L101.821197,1.09568707 C101.821197,0.879360544 101.998204,0.702353741 102.214531,0.702353741 L118.359293,0.702353741 C118.575619,0.702353741 118.752762,0.879360544 118.752762,1.09568707 L118.752762,2.21854422 C118.752762,2.43487075 118.575619,2.61187755 118.359293,2.61187755"
                                  id="Fill-256" fill="#82A7E8"></path>
                            <polygon id="Fill-258" fill="#82A7E8"
                                     points="107.203265 21.277551 127.893741 21.277551 127.893741 20.3940136 107.203265 20.3940136"></polygon>
                            <polygon id="Fill-269" fill="#2F6FDC"
                                     points="30.5859864 19.0858503 41.4844898 19.0858503 41.4844898 17.2965986 30.5859864 17.2965986"></polygon>
                            <polygon id="Fill-270" fill="#82A7E8"
                                     points="0 18.1912925 6.42489796 18.1912925 6.42489796 17.2965986 0 17.2965986"></polygon>
                            <path d="M37.3445986,55.706585 C37.3445986,56.334068 36.8358912,56.8429116 36.2082721,56.8429116 C35.5807891,56.8429116 35.0720816,56.334068 35.0720816,55.706585 C35.0720816,55.079102 35.5807891,54.5703946 36.2082721,54.5703946 C36.8358912,54.5703946 37.3445986,55.079102 37.3445986,55.706585"
                                  id="Fill-271" fill="#82A7E8"></path>
                            <polygon id="Fill-272" fill="#82A7E8"
                                     points="34.6488435 59.6492517 37.7677551 59.6492517 37.7677551 55.4609524 34.6488435 55.4609524"></polygon>
                            <path d="M35.6757959,60.3134422 L35.6757959,60.4926259 C35.6757959,60.7222857 35.543551,60.9320816 35.3349796,61.028 C34.8586531,61.2469116 34.0514422,61.7850068 34.0514422,62.9164354 C34.0514422,64.5213333 35.5487211,64.7124898 36.1846395,64.5995646 C36.9774286,64.4586122 37.9325306,63.345415 37.9325306,61.9167075 L37.7503537,61.8009252 C37.7503537,61.8009252 37.4122585,63.6588844 36.1162041,63.640517 C34.8719864,63.6228299 34.8730748,61.9765714 36.0529388,61.6225578 C36.1129388,61.6044626 36.1694014,61.5773878 36.2225986,61.5443265 C36.3987891,61.4343946 36.7326667,61.1837823 36.7326667,60.8613333 L36.7326667,60.3134422 L35.6757959,60.3134422 Z"
                                  id="Fill-273" fill="#2F6FDC"></path>
                            <polygon id="Fill-274" fill="#82A7E8"
                                     points="153.330748 17.2965986 174.012925 17.2965986 174.012925 12.1159184 153.330748 12.1159184"></polygon>
                        </g>
                    </g>
                    <g id="Group-63" transform="translate(73.000000, 145.000000)">
                        <path d="M77.88672,29.57184 C77.88672,30.00064 77.48192,30.34944 76.98432,30.34944 C76.48512,30.34944 76.08032,30.00064 76.08032,29.57184 L76.08032,28.37344 C76.08032,27.94304 76.48512,27.59424 76.98432,27.59424 C77.48192,27.59424 77.88672,27.94304 77.88672,28.37344 L77.88672,29.57184 Z"
                              id="Fill-1" fill="#FF4000"></path>
                        <polygon id="Fill-3" fill="#82A7E8"
                                 points="76.81952 33.59216 75.91552 33.59216 75.91552 27.25136 76.82912 27.25136"></polygon>
                        <path d="M9.12736,32.92032 L75.91456,32.92032 L75.91456,27.31552 L26.49696,27.31552 L26.49696,24.09472 L20.36576,24.09472 C20.36576,24.09472 9.12736,26.69472 9.12736,32.92032"
                              id="Fill-5" fill="#2F6FDC"></path>
                        <path d="M43.032,33.38288 C43.032,34.00048 42.5328,34.49808 41.9168,34.49808 L28.664,34.49808 C28.0512,34.49808 27.5488,34.00048 27.5488,33.38288 L27.5488,29.23408 C27.5488,28.61808 28.0512,28.12048 28.664,28.12048 L41.9168,28.12048 C42.5328,28.12048 43.032,28.61808 43.032,29.23408 L43.032,33.38288 Z"
                              id="Fill-7" fill="#2F6FDC"></path>
                        <path d="M40.664,34.49792 L41.408,34.49792 L41.408,28.12032 L40.664,28.12032 L40.664,34.49792 Z M34.6944,34.49792 L35.4384,34.49792 L35.4384,28.12032 L34.6944,28.12032 L34.6944,34.49792 Z M28.7264,34.49792 L29.4704,34.49792 L29.4704,28.12032 L28.7264,28.12032 L28.7264,34.49792 Z"
                              id="Fill-9" fill="#FFFFFF"></path>
                        <path d="M24.54768,33.61728 C24.54768,36.95168 21.84528,39.65408 18.50928,39.65408 C15.17488,39.65408 12.47088,36.95168 12.47088,33.61728 C12.47088,30.27968 15.17488,27.57888 18.50928,27.57888 C21.84528,27.57888 24.54768,30.27968 24.54768,33.61728"
                              id="Fill-12" fill="#2F6FDC"></path>
                        <path d="M21.53504,33.61728 C21.53504,35.28768 20.18144,36.64448 18.50944,36.64448 C16.83744,36.64448 15.48224,35.28768 15.48224,33.61728 C15.48224,31.94528 16.83744,30.58848 18.50944,30.58848 C20.18144,30.58848 21.53504,31.94528 21.53504,33.61728"
                              id="Fill-13" fill="#FFFFFF"></path>
                        <path d="M59.56784,33.61728 C59.56784,36.95168 56.86224,39.65408 53.52944,39.65408 C50.19504,39.65408 47.48944,36.95168 47.48944,33.61728 C47.48944,30.27968 50.19504,27.57888 53.52944,27.57888 C56.86224,27.57888 59.56784,30.27968 59.56784,33.61728"
                              id="Fill-17" fill="#2F6FDC"></path>
                        <path d="M56.55392,33.61728 C56.55392,35.28768 55.19872,36.64448 53.52832,36.64448 C51.85632,36.64448 50.50112,35.28768 50.50112,33.61728 C50.50112,31.94528 51.85632,30.58848 53.52832,30.58848 C55.19872,30.58848 56.55392,31.94528 56.55392,33.61728"
                              id="Fill-18" fill="#FFFFFF"></path>
                        <path d="M72.47728,33.61728 C72.47728,36.95168 69.77488,39.65408 66.44048,39.65408 C63.10608,39.65408 60.40208,36.95168 60.40208,33.61728 C60.40208,30.27968 63.10608,27.57888 66.44048,27.57888 C69.77488,27.57888 72.47728,30.27968 72.47728,33.61728"
                              id="Fill-22" fill="#2F6FDC"></path>
                        <path d="M69.4664,33.61728 C69.4664,35.28768 68.1112,36.64448 66.4392,36.64448 C64.7672,36.64448 63.4136,35.28768 63.4136,33.61728 C63.4136,31.94528 64.7672,30.58848 66.4392,30.58848 C68.1112,30.58848 69.4664,31.94528 69.4664,33.61728"
                              id="Fill-23" fill="#FFFFFF"></path>
                        <path d="M11.68128,33.61728 C11.68128,29.84608 14.73728,26.78848 18.51008,26.78848 C19.44128,26.78848 20.32928,26.97728 21.14048,27.31648 L21.20448,27.25088 L21.20448,6.11808 C21.20448,4.63488 20.46048,4.21568 19.41408,4.21568 L8.29088,4.21568 C6.06208,4.21568 5.28608,5.85728 4.76128,7.15808 C4.23488,8.45568 1.97408,13.55168 1.64928,14.38688 C1.32448,15.22528 1.11488,15.17888 1.11488,16.75648 L1.11488,33.87808 C1.11488,35.30368 1.47968,36.04768 3.11968,36.04768 L11.71168,36.04768 C11.71168,36.04768 11.68128,34.47328 11.68128,33.61728"
                              id="Fill-27" fill="#82A7E8"></path>
                        <path d="M8.84688,6.0016 C7.22768,6.0016 6.63408,7.1344 6.16528,8.2928 L3.49808,14.4896 L3.30768,14.92 C3.17648,15.1984 3.09968,15.3984 3.07728,16.0128 C3.77808,16.016 15.71728,16.04 16.40208,16.0432 C16.40368,15.3536 16.40848,6.6256 16.40848,6.6256 C16.40848,6.0016 16.40848,6.0016 15.84528,6.0016 L8.84688,6.0016 Z"
                              id="Fill-29" fill="#BCD1F6"></path>
                        <path d="M1.98352,27.25152 C1.98352,27.92032 1.55312,28.46112 1.02192,28.46112 C0.49072,28.46112 0.05872,27.92032 0.05872,27.25152 L0.05872,25.39552 C0.05872,24.72832 0.49072,24.18752 1.02192,24.18752 C1.55312,24.18752 1.98352,24.72832 1.98352,25.39552 L1.98352,27.25152 Z"
                              id="Fill-30" fill="#2F6FDC"></path>
                        <path d="M3.45936,5.56256 C2.80496,5.56256 2.41456,5.95296 2.41456,6.60736 L2.41456,9.88096 C2.41456,10.46816 2.73776,10.79296 3.32496,10.79296 C3.42736,10.79296 3.51056,10.70976 3.51056,10.60416 C3.51056,10.50496 3.42736,10.42016 3.32496,10.42016 C2.94256,10.42016 2.78736,10.26496 2.78736,9.88096 L2.78736,6.60736 C2.78736,6.15456 3.00656,5.93376 3.45936,5.93376 L6.26096,5.93376 C6.36336,5.93376 6.44656,5.85056 6.44656,5.74816 C6.44656,5.64576 6.36336,5.56256 6.26096,5.56256 L3.45936,5.56256 Z"
                              id="Fill-32" fill="#FFFFFF"></path>
                        <path d="M1.11472,29.62192 C0.24432,29.62192 -0.00048,30.08592 -0.00048,30.65392 L-0.00048,33.87792 C-0.00048,35.30352 0.36432,36.04752 2.00592,36.04752 L11.71152,36.04752 C11.71152,36.04752 11.68112,34.47312 11.68112,33.61712 C11.68112,32.12112 12.16432,30.74512 12.98032,29.62192 L1.11472,29.62192 Z"
                              id="Fill-33" fill="#2F6FDC"></path>
                        <path d="M7.70224,31.74064 L2.58864,31.74064 C2.58864,31.42544 2.84464,31.16784 3.15984,31.16784 L7.12784,31.16784 C7.44464,31.16784 7.70224,31.42544 7.70224,31.74064"
                              id="Fill-35" fill="#FECD31"></path>
                        <path d="M3.89296,13.3656 C3.89296,13.8008 3.69616,13.9688 3.45456,13.9688 C3.20976,13.9688 3.01136,13.8008 3.01136,13.3656 L3.01136,8.0712 C3.01136,7.6344 3.20976,7.5128 3.45456,7.5128 C3.69616,7.5128 3.89296,7.6344 3.89296,8.0712 L3.89296,13.3656 Z"
                              id="Fill-38" fill="#2F6FDC"></path>
                        <path d="M20.94448,27.2376 C23.52208,28.204 25.25328,30.7064 25.25328,33.4616 C25.25328,33.876 25.21648,34.292 25.14128,34.6984 L25.86928,34.8344 C25.95568,34.3848 25.99728,33.9224 25.99728,33.4616 C25.99728,30.4008 24.07248,27.6184 21.20688,26.54 L20.94448,27.2376 Z"
                              id="Fill-41" fill="#FFFFFF"></path>
                        <path d="M41.91632,34.4984 C42.53392,34.4984 43.03152,33.9992 43.03152,33.3832 L43.03152,29.2344 C43.03152,28.6184 42.53392,28.1208 41.91632,28.1208 L41.85392,28.1208 L31.79472,34.4984 L41.91632,34.4984 Z"
                              id="Fill-42" fill="#2F6FDC"></path>
                        <path d="M1.11472,28.88288 L1.11472,31.81088 L11.92912,31.81088 C12.23632,30.69568 12.81392,29.69408 13.59312,28.88288 L1.11472,28.88288 Z"
                              id="Fill-43" fill="#BCD1F6"></path>
                        <polygon id="Fill-45" fill="#82A7E8"
                                 points="78.05072 27.31568 26.49712 27.31568 26.49712 25.37168 78.06832 25.37168"></polygon>
                        <polygon id="Fill-46" fill="#82A7E8"
                                 points="39.17104 27.31568 78.05104 27.31568 78.06864 25.37168 42.23504 25.37168"></polygon>
                        <path d="M52.88048,26.02352 C49.21008,26.02352 45.50448,28.15952 45.50448,32.93392 L45.50448,34.66832 L46.69168,34.66832 L46.69168,32.93392 C46.69168,28.71152 50.02768,27.21232 52.88048,27.21232 L67.64528,27.21232 C70.31088,27.21232 73.29008,29.65712 73.29008,32.93392 L73.29008,34.66832 L74.48048,34.66832 L74.48048,32.93392 C74.48048,28.98032 70.87088,26.02352 67.64528,26.02352 L52.88048,26.02352 Z"
                              id="Fill-47" fill="#FFFFFF"></path>
                        <path d="M19.80704,4.24064 L19.80704,26.91584 C20.26944,27.00544 20.71584,27.13824 21.13984,27.31584 L21.20384,27.25184 L21.20384,6.11904 C21.20384,4.82784 20.64064,4.34464 19.80704,4.24064"
                              id="Fill-48" fill="#82A7E8"></path>
                        <polygon id="Fill-49" fill="#BCD1F6"
                                 points="79.02416 25.55936 79.02416 3.76256 27.23536 3.76256 26.32816 -0.00064 14.92816 -0.00064 15.73616 3.76896 22.85296 3.76896 27.79856 25.55936"></polygon>
                        <g id="Group-56" transform="translate(27.200000, 6.054720)" fill="#82A7E8">
                            <polygon id="Fill-50"
                                     points="7.67568 16.47968 4.06448 0.56928 0.19728 0.56928 3.80848 16.47968"></polygon>
                            <polygon id="Fill-51"
                                     points="16.12112 16.47968 12.50992 0.56928 8.64112 0.56928 12.25392 16.47968"></polygon>
                            <polygon id="Fill-52"
                                     points="24.5664 16.47968 20.9552 0.56928 17.088 0.56928 20.6992 16.47968"></polygon>
                            <polygon id="Fill-53"
                                     points="33.01168 16.47968 29.40048 0.56928 25.53168 0.56928 29.14288 16.47968"></polygon>
                            <polygon id="Fill-54"
                                     points="41.45696 16.47968 37.84416 0.56928 33.97696 0.56928 37.58816 16.47968"></polygon>
                            <polygon id="Fill-55"
                                     points="49.90224 16.47968 46.28944 0.56928 42.42224 0.56928 46.03504 16.47968"></polygon>
                        </g>
                        <polygon id="Fill-58" fill="#2F6FDC"
                                 points="21.2 24.14432 22.688 24.14432 22.688 17.45312 21.2 17.45312"></polygon>
                        <polygon id="Fill-59" fill="#DADADA"
                                 points="22.11472 3.7688 21.50352 3.7688 23.69712 24.1752 24.30192 24.1096"></polygon>
                        <polygon id="Fill-60" fill="#2F6FDC"
                                 points="22.1336 12.42496 23.4008 24.20576 24.6104 24.07776 23.3416 12.29376"></polygon>
                    </g>
                    <g id="Group-41-Copy" transform="translate(143.000000, 166.000000)">
                        <polygon id="Fill-1" fill="#F6F6F6"
                                 points="2.13055028 19.3360152 3.65662239 19.3360152 3.65662239 1.93867173 2.13055028 1.93867173"></polygon>
                        <polygon id="Fill-2" fill="#F6F6F6"
                                 points="19.7653131 19.3360152 21.2913852 19.3360152 21.2913852 1.93867173 19.7653131 1.93867173"></polygon>
                        <g id="Group-40" transform="translate(0.000000, 0.057078)">
                            <g id="Group-9" transform="translate(1.214421, 0.000000)">
                                <mask id="mask-13" fill="white">
                                    <use xlink:href="#path-12"></use>
                                </mask>
                                <g id="Clip-8"></g>
                            </g>
                            <path d="M4.11271347,1.63772296 C4.11271347,2.31111954 3.56683112,2.85669829 2.89358634,2.85669829 C2.22018975,2.85669829 1.6744592,2.31111954 1.6744592,1.63772296 C1.6744592,0.964326376 2.22018975,0.418595825 2.89358634,0.418595825 C3.56683112,0.418595825 4.11271347,0.964326376 4.11271347,1.63772296"
                                  id="Fill-10" fill="#759EE6"></path>
                            <g id="Group-14" transform="translate(18.975332, 0.000000)">
                                <mask id="mask-15" fill="white">
                                    <use xlink:href="#path-14"></use>
                                </mask>
                                <g id="Clip-13"></g>
                            </g>
                            <path d="M21.7474763,1.63772296 C21.7474763,2.31111954 21.2015939,2.85669829 20.5283491,2.85669829 C19.8549526,2.85669829 19.309222,2.31111954 19.309222,1.63772296 C19.309222,0.964326376 19.8549526,0.418595825 20.5283491,0.418595825 C21.2015939,0.418595825 21.7474763,0.964326376 21.7474763,1.63772296"
                                  id="Fill-15" fill="#759EE6"></path>
                            <polygon id="Fill-25" fill="#FEFEFE"
                                     points="0 8.06041746 23.4219355 8.06041746 23.4219355 4.14102467 0 4.14102467"></polygon>
                            <polygon id="Fill-27" fill="#FEFEFE"
                                     points="0 14.433093 23.4219355 14.433093 23.4219355 10.5137002 0 10.5137002"></polygon>
                            <polygon id="Fill-28" fill="#E3000F"
                                     points="4.82073624 14.4330323 2.03804175 14.4330323 -6.07210626e-05 12.3949298 -6.07210626e-05 10.5136395 0.901343454 10.5136395"></polygon>
                            <polygon id="Fill-29" fill="#E3000F"
                                     points="5.19297154 8.06043264 2.41012524 8.06043264 2.13050474 7.78081214 -4.5540797e-05 5.65026186 -4.5540797e-05 4.14103985 1.27342694 4.14103985 2.13050474 4.99796584 3.65657685 6.52403795"></polygon>
                            <polygon id="Fill-30" fill="#E3000F"
                                     points="11.5655712 14.4330323 8.78272486 14.4330323 4.86333207 10.5136395 7.64617837 10.5136395"></polygon>
                            <polygon id="Fill-31" fill="#E3000F"
                                     points="11.9376698 8.06043264 9.15497533 8.06043264 5.23543074 4.14103985 8.01827704 4.14103985"></polygon>
                            <polygon id="Fill-32" fill="#E3000F"
                                     points="18.3102694 14.4330323 15.5274231 14.4330323 11.6081822 10.5136395 14.3908767 10.5136395"></polygon>
                            <polygon id="Fill-33" fill="#E3000F"
                                     points="18.6825047 8.06043264 15.8996584 8.06043264 11.9802657 4.14103985 14.763112 4.14103985"></polygon>
                            <polygon id="Fill-34" fill="#E3000F"
                                     points="23.4218899 12.7998178 23.4218899 14.4330626 22.2722884 14.4330626 21.2913397 13.4521139 19.7652676 11.9260417 18.3527438 10.513518 21.1355901 10.513518 21.2913397 10.6692676"></polygon>
                            <polygon id="Fill-35" fill="#E3000F"
                                     points="23.4218899 6.05511954 23.4218899 8.06043264 22.6445085 8.06043264 21.2913397 6.70726376 18.7249639 4.14103985 21.5078102 4.14103985"></polygon>
                            <polygon id="Fill-36" fill="#F6F6F6"
                                     points="3.65662239 16.8124478 19.7653131 16.8124478 19.7653131 15.977685 3.65662239 15.977685"></polygon>
                            <polygon id="Fill-37" fill="#010202"
                                     points="3.65662239 16.8124478 19.7653131 16.8124478 19.7653131 16.5378368 3.65662239 16.5378368"></polygon>
                        </g>
                    </g>
                    <g id="Group-41-Copy-2" transform="translate(196.000000, 166.000000)">
                        <polygon id="Fill-1" fill="#F6F6F6"
                                 points="2.13055028 19.3360152 3.65662239 19.3360152 3.65662239 1.93867173 2.13055028 1.93867173"></polygon>
                        <polygon id="Fill-2" fill="#F6F6F6"
                                 points="19.7653131 19.3360152 21.2913852 19.3360152 21.2913852 1.93867173 19.7653131 1.93867173"></polygon>
                        <g id="Group-40" transform="translate(0.000000, 0.057078)">
                            <g id="Group-9" transform="translate(1.214421, 0.000000)">
                                <mask id="mask-17" fill="white">
                                    <use xlink:href="#path-16"></use>
                                </mask>
                                <g id="Clip-8"></g>
                            </g>
                            <path d="M4.11271347,1.63772296 C4.11271347,2.31111954 3.56683112,2.85669829 2.89358634,2.85669829 C2.22018975,2.85669829 1.6744592,2.31111954 1.6744592,1.63772296 C1.6744592,0.964326376 2.22018975,0.418595825 2.89358634,0.418595825 C3.56683112,0.418595825 4.11271347,0.964326376 4.11271347,1.63772296"
                                  id="Fill-10" fill="#759EE6"></path>
                            <g id="Group-14" transform="translate(18.975332, 0.000000)">
                                <mask id="mask-19" fill="white">
                                    <use xlink:href="#path-18"></use>
                                </mask>
                                <g id="Clip-13"></g>
                            </g>
                            <path d="M21.7474763,1.63772296 C21.7474763,2.31111954 21.2015939,2.85669829 20.5283491,2.85669829 C19.8549526,2.85669829 19.309222,2.31111954 19.309222,1.63772296 C19.309222,0.964326376 19.8549526,0.418595825 20.5283491,0.418595825 C21.2015939,0.418595825 21.7474763,0.964326376 21.7474763,1.63772296"
                                  id="Fill-15" fill="#759EE6"></path>
                            <polygon id="Fill-25" fill="#FEFEFE"
                                     points="0 8.06041746 23.4219355 8.06041746 23.4219355 4.14102467 0 4.14102467"></polygon>
                            <polygon id="Fill-27" fill="#FEFEFE"
                                     points="0 14.433093 23.4219355 14.433093 23.4219355 10.5137002 0 10.5137002"></polygon>
                            <polygon id="Fill-28" fill="#E3000F"
                                     points="4.82073624 14.4330323 2.03804175 14.4330323 -6.07210626e-05 12.3949298 -6.07210626e-05 10.5136395 0.901343454 10.5136395"></polygon>
                            <polygon id="Fill-29" fill="#E3000F"
                                     points="5.19297154 8.06043264 2.41012524 8.06043264 2.13050474 7.78081214 -4.5540797e-05 5.65026186 -4.5540797e-05 4.14103985 1.27342694 4.14103985 2.13050474 4.99796584 3.65657685 6.52403795"></polygon>
                            <polygon id="Fill-30" fill="#E3000F"
                                     points="11.5655712 14.4330323 8.78272486 14.4330323 4.86333207 10.5136395 7.64617837 10.5136395"></polygon>
                            <polygon id="Fill-31" fill="#E3000F"
                                     points="11.9376698 8.06043264 9.15497533 8.06043264 5.23543074 4.14103985 8.01827704 4.14103985"></polygon>
                            <polygon id="Fill-32" fill="#E3000F"
                                     points="18.3102694 14.4330323 15.5274231 14.4330323 11.6081822 10.5136395 14.3908767 10.5136395"></polygon>
                            <polygon id="Fill-33" fill="#E3000F"
                                     points="18.6825047 8.06043264 15.8996584 8.06043264 11.9802657 4.14103985 14.763112 4.14103985"></polygon>
                            <polygon id="Fill-34" fill="#E3000F"
                                     points="23.4218899 12.7998178 23.4218899 14.4330626 22.2722884 14.4330626 21.2913397 13.4521139 19.7652676 11.9260417 18.3527438 10.513518 21.1355901 10.513518 21.2913397 10.6692676"></polygon>
                            <polygon id="Fill-35" fill="#E3000F"
                                     points="23.4218899 6.05511954 23.4218899 8.06043264 22.6445085 8.06043264 21.2913397 6.70726376 18.7249639 4.14103985 21.5078102 4.14103985"></polygon>
                            <polygon id="Fill-36" fill="#F6F6F6"
                                     points="3.65662239 16.8124478 19.7653131 16.8124478 19.7653131 15.977685 3.65662239 15.977685"></polygon>
                            <polygon id="Fill-37" fill="#010202"
                                     points="3.65662239 16.8124478 19.7653131 16.8124478 19.7653131 16.5378368 3.65662239 16.5378368"></polygon>
                        </g>
                    </g>
                    <g id="Group-5" transform="translate(25.600000, 41.700000)">
                        <path d="M221.0436,11.11284 L220.64868,11.11284 L220.64868,10.71792 C220.64868,10.26612 220.28256,9.9 219.83076,9.9 C219.37896,9.9 219.01284,10.26612 219.01284,10.71792 L219.01284,11.11284 L218.61792,11.11284 C218.16612,11.11284 217.8,11.47932 217.8,11.93076 C217.8,12.38256 218.16612,12.74868 218.61792,12.74868 L219.01284,12.74868 L219.01284,13.14396 C219.01284,13.5954 219.37896,13.96188 219.83076,13.96188 C220.28256,13.96188 220.64868,13.5954 220.64868,13.14396 L220.64868,12.74868 L221.0436,12.74868 C221.4954,12.74868 221.86152,12.38256 221.86152,11.93076 C221.86152,11.47932 221.4954,11.11284 221.0436,11.11284"
                              id="Fill-9" fill="#2F6FDC"></path>
                        <path d="M143.6436,1.21284 L143.24868,1.21284 L143.24868,0.81792 C143.24868,0.36612 142.88256,-1.11022302e-14 142.43076,-1.11022302e-14 C141.97896,-1.11022302e-14 141.61284,0.36612 141.61284,0.81792 L141.61284,1.21284 L141.21792,1.21284 C140.76612,1.21284 140.4,1.57932 140.4,2.03076 C140.4,2.48256 140.76612,2.84868 141.21792,2.84868 L141.61284,2.84868 L141.61284,3.24396 C141.61284,3.6954 141.97896,4.06188 142.43076,4.06188 C142.88256,4.06188 143.24868,3.6954 143.24868,3.24396 L143.24868,2.84868 L143.6436,2.84868 C144.0954,2.84868 144.46152,2.48256 144.46152,2.03076 C144.46152,1.57932 144.0954,1.21284 143.6436,1.21284"
                              id="Fill-9-Copy-4" fill="#2F6FDC"></path>
                        <path d="M129.2436,30.01284 L128.84868,30.01284 L128.84868,29.61792 C128.84868,29.16612 128.48256,28.8 128.03076,28.8 C127.57896,28.8 127.21284,29.16612 127.21284,29.61792 L127.21284,30.01284 L126.81792,30.01284 C126.36612,30.01284 126,30.37932 126,30.83076 C126,31.28256 126.36612,31.64868 126.81792,31.64868 L127.21284,31.64868 L127.21284,32.04396 C127.21284,32.4954 127.57896,32.86188 128.03076,32.86188 C128.48256,32.86188 128.84868,32.4954 128.84868,32.04396 L128.84868,31.64868 L129.2436,31.64868 C129.6954,31.64868 130.06152,31.28256 130.06152,30.83076 C130.06152,30.37932 129.6954,30.01284 129.2436,30.01284"
                              id="Fill-9-Copy" fill="#2F6FDC"></path>
                        <path d="M38.3436,45.31284 L37.94868,45.31284 L37.94868,44.91792 C37.94868,44.46612 37.58256,44.1 37.13076,44.1 C36.67896,44.1 36.31284,44.46612 36.31284,44.91792 L36.31284,45.31284 L35.91792,45.31284 C35.46612,45.31284 35.1,45.67932 35.1,46.13076 C35.1,46.58256 35.46612,46.94868 35.91792,46.94868 L36.31284,46.94868 L36.31284,47.34396 C36.31284,47.7954 36.67896,48.16188 37.13076,48.16188 C37.58256,48.16188 37.94868,47.7954 37.94868,47.34396 L37.94868,46.94868 L38.3436,46.94868 C38.7954,46.94868 39.16152,46.58256 39.16152,46.13076 C39.16152,45.67932 38.7954,45.31284 38.3436,45.31284"
                              id="Fill-9-Copy-2" fill="#2F6FDC"></path>
                        <path d="M8.6436,4.81284 L8.24868,4.81284 L8.24868,4.41792 C8.24868,3.96612 7.88256,3.6 7.43076,3.6 C6.97896,3.6 6.61284,3.96612 6.61284,4.41792 L6.61284,4.81284 L6.21792,4.81284 C5.76612,4.81284 5.4,5.17932 5.4,5.63076 C5.4,6.08256 5.76612,6.44868 6.21792,6.44868 L6.61284,6.44868 L6.61284,6.84396 C6.61284,7.2954 6.97896,7.66188 7.43076,7.66188 C7.88256,7.66188 8.24868,7.2954 8.24868,6.84396 L8.24868,6.44868 L8.6436,6.44868 C9.0954,6.44868 9.46152,6.08256 9.46152,5.63076 C9.46152,5.17932 9.0954,4.81284 8.6436,4.81284"
                              id="Fill-9-Copy-3" fill="#2F6FDC"></path>
                        <path d="M212.06952,36.28476 C212.06952,36.93924 211.53924,37.46952 210.88476,37.46952 C210.23064,37.46952 209.7,36.93924 209.7,36.28476 C209.7,35.63064 210.23064,35.1 210.88476,35.1 C211.53924,35.1 212.06952,35.63064 212.06952,36.28476"
                              id="Fill-21" fill="#E3000F"></path>
                        <path d="M257.96952,17.38476 C257.96952,18.03924 257.43924,18.56952 256.78476,18.56952 C256.13064,18.56952 255.6,18.03924 255.6,17.38476 C255.6,16.73064 256.13064,16.2 256.78476,16.2 C257.43924,16.2 257.96952,16.73064 257.96952,17.38476"
                              id="Fill-21-Copy-4" fill="#E3000F"></path>
                        <path d="M172.46952,7.48476 C172.46952,8.13924 171.93924,8.66952 171.28476,8.66952 C170.63064,8.66952 170.1,8.13924 170.1,7.48476 C170.1,6.83064 170.63064,6.3 171.28476,6.3 C171.93924,6.3 172.46952,6.83064 172.46952,7.48476"
                              id="Fill-21-Copy" fill="#E3000F"></path>
                        <path d="M83.36952,8.38476 C83.36952,9.03924 82.83924,9.56952 82.18476,9.56952 C81.53064,9.56952 81,9.03924 81,8.38476 C81,7.73064 81.53064,7.2 82.18476,7.2 C82.83924,7.2 83.36952,7.73064 83.36952,8.38476"
                              id="Fill-21-Copy-2" fill="#E3000F"></path>
                        <path d="M20.36952,28.18476 C20.36952,28.83924 19.83924,29.36952 19.18476,29.36952 C18.53064,29.36952 18,28.83924 18,28.18476 C18,27.53064 18.53064,27 19.18476,27 C19.83924,27 20.36952,27.53064 20.36952,28.18476"
                              id="Fill-21-Copy-3" fill="#E3000F"></path>
                        <path d="M2.36952,54.28476 C2.36952,54.93924 1.83924,55.46952 1.18476,55.46952 C0.53064,55.46952 -1.70974346e-14,54.93924 -1.70974346e-14,54.28476 C-1.70974346e-14,53.63064 0.53064,53.1 1.18476,53.1 C1.83924,53.1 2.36952,53.63064 2.36952,54.28476"
                              id="Fill-21-Copy-5" fill="#E3000F"></path>
                    </g>
                </g>
            </g>
        </g>
    </g>
</svg>
